<svg width="25" height="25" viewBox="0 0 25 25" fill="none" xmlns="http://www.w3.org/2000/svg">
<g clip-path="url(#clip0_1827_3409)">
<path d="M5.35737 15.9289C6.43283 15.0199 7.04948 13.6912 7.04948 12.2837L7.04948 10.3008C7.04948 7.79797 8.90867 5.7261 11.3169 5.37904L11.3169 4.6108C11.3169 4.21749 11.6356 3.8996 12.0281 3.8996C12.4208 3.8996 12.7395 4.21749 12.7395 4.6108L12.7395 5.37904C15.1484 5.7261 17.0069 7.79797 17.0069 10.3008L17.0069 12.2837C17.0069 13.6912 17.6236 15.0199 18.7053 15.9345C18.982 16.1714 19.1406 16.5156 19.1406 16.8797C19.1406 17.5662 18.5823 18.1245 17.8959 18.1245L6.16039 18.1245C5.47406 18.1245 4.91576 17.5662 4.91576 16.8797C4.91576 16.5156 5.07438 16.1714 5.35737 15.9289Z" fill="white"/>
<path d="M12.0275 20.9703C10.7395 20.9703 9.66198 20.052 9.41441 18.8365L14.6406 18.8365C14.3932 20.052 13.3156 20.9703 12.0275 20.9703Z" fill="white"/>
<circle cx="12.2857" cy="12.4996" r="11.6714" stroke="white" stroke-width="1.22857"/>
</g>
<defs>
<clipPath id="clip0_1827_3409">
<rect width="24.5714" height="24.5714" fill="white" transform="translate(0 0.213867)"/>
</clipPath>
</defs>
</svg>
