<svg width="26" height="30" viewBox="0 0 26 30" fill="none" xmlns="http://www.w3.org/2000/svg">
<path d="M25.75 26.334V6.50065C25.75 4.93807 24.4792 3.66732 22.9167 3.66732H20.0833V0.833984H17.25V3.66732H8.75V0.833984H5.91667V3.66732H3.08333C1.52075 3.66732 0.25 4.93807 0.25 6.50065V26.334C0.25 27.8966 1.52075 29.1673 3.08333 29.1673H22.9167C24.4792 29.1673 25.75 27.8966 25.75 26.334ZM8.75 23.5007H5.91667V20.6673H8.75V23.5007ZM8.75 17.834H5.91667V15.0007H8.75V17.834ZM14.4167 23.5007H11.5833V20.6673H14.4167V23.5007ZM14.4167 17.834H11.5833V15.0007H14.4167V17.834ZM20.0833 23.5007H17.25V20.6673H20.0833V23.5007ZM20.0833 17.834H17.25V15.0007H20.0833V17.834ZM22.9167 10.7507H3.08333V7.91732H22.9167V10.7507Z" fill="#828282"/>
</svg>
