<svg width="23" height="32" viewBox="0 0 23 32" fill="none" xmlns="http://www.w3.org/2000/svg">
<path d="M0.373757 15.7526C0.373757 15.7526 1.46173 17.521 3.74203 19.0178C3.74203 19.0178 2.09054 3.5755 12.8511 0.893555C10.0942 12.0882 16.3579 15.2452 18.6412 9.3309C22.4542 14.9633 19.5591 19.8774 19.5591 19.8774C21.1226 20.1266 22.4359 18.2367 22.4359 18.2367C22.4476 18.4695 22.4542 18.7039 22.4542 18.94C22.4542 25.8002 17.4277 31.3614 11.2271 31.3614C5.02654 31.3614 0 25.8002 0 18.9399C0 17.838 0.130376 16.7698 0.373757 15.7526Z" fill="#FF6536"/>
<path d="M22.4354 18.2367C22.4354 18.2367 21.1221 20.1266 19.5586 19.8774C19.5586 19.8774 22.4537 14.9633 18.6407 9.3309C16.3574 15.2452 10.0937 12.0882 12.8506 0.893555C12.2743 1.03721 11.7338 1.21769 11.2266 1.43019V31.3614C17.4271 31.3614 22.4537 25.8002 22.4537 18.9399C22.4537 18.7039 22.4471 18.4695 22.4354 18.2367Z" fill="#FF421D"/>
<path d="M6.30078 25.9139C6.30078 28.9224 8.50524 31.3614 11.2245 31.3614C13.9438 31.3614 16.1483 28.9224 16.1483 25.9139C16.1483 24.3035 15.5168 22.8564 14.5128 21.8591C12.6091 24.7205 9.89625 20.38 12.0105 17.2103C12.0105 17.2103 6.30078 18.0019 6.30078 25.9139Z" fill="#FBBF00"/>
<path d="M16.1503 25.9139C16.1503 24.3035 15.5188 22.8564 14.5148 21.8591C12.6111 24.7205 9.89827 20.38 12.0125 17.2103C12.0125 17.2103 11.7022 17.2534 11.2266 17.4195V31.3614C13.9459 31.3614 16.1503 28.9224 16.1503 25.9139Z" fill="#FFA900"/>
</svg>
