<svg width="24" height="24" viewBox="0 0 24 24" fill="none" xmlns="http://www.w3.org/2000/svg">
<g clip-path="url(#clip0_2120_7420)">
<path d="M23.4674 23.0811V23.0801H23.4732V14.6432C23.4732 10.5157 22.5846 7.3363 17.7594 7.3363C15.4398 7.3363 13.8831 8.60923 13.2476 9.81601H13.1805V7.72163H8.60547V23.0801H13.3693V15.4752C13.3693 13.4728 13.7489 11.5366 16.2286 11.5366C18.6719 11.5366 18.7083 13.8217 18.7083 15.6036V23.0811H23.4674Z" fill="#8A8A8A"/>
<path d="M0.851562 7.72278H5.62119V23.0813H0.851562V7.72278Z" fill="#8A8A8A"/>
<path d="M3.23123 0.0765991C1.70621 0.0765991 0.46875 1.31406 0.46875 2.83907C0.46875 4.36409 1.70621 5.62743 3.23123 5.62743C4.75624 5.62743 5.9937 4.36409 5.9937 2.83907C5.99274 1.31406 4.75528 0.0765991 3.23123 0.0765991V0.0765991Z" fill="#8A8A8A"/>
</g>
<defs>
<clipPath id="clip0_2120_7420">
<rect width="23.0047" height="23.0047" fill="white" transform="translate(0.46875 0.0770264)"/>
</clipPath>
</defs>
</svg>
