<svg width="20" height="26" viewBox="0 0 20 26" fill="none" xmlns="http://www.w3.org/2000/svg">
<path d="M9.87618 0C4.43045 0 0 4.30498 0 9.59648C0 13.0124 1.06941 14.3823 6.20837 20.9651C7.10041 22.1078 8.11153 23.4029 9.26841 24.9016C9.4119 25.0875 9.63707 25.1969 9.87623 25.1969C10.1154 25.1969 10.3405 25.0875 10.484 24.9015C11.6341 23.4109 12.6408 22.1207 13.529 20.9823C18.6804 14.3804 19.7524 13.0065 19.7524 9.59648C19.7524 4.30498 15.3219 0 9.87618 0ZM12.3183 20.0903C11.5888 21.0253 10.7795 22.0625 9.87603 23.2296C8.96635 22.055 8.15246 21.0124 7.41888 20.0728C2.42012 13.6696 1.51941 12.5158 1.51941 9.59648C1.51941 5.11906 5.26826 1.47638 9.87618 1.47638C14.4841 1.47638 18.2329 5.11906 18.2329 9.59648C18.2329 12.5101 17.3299 13.6674 12.3183 20.0903Z" fill="#333333"/>
<path d="M9.87653 4.4295C6.94422 4.4295 4.55859 6.74757 4.55859 9.59683C4.55859 12.4461 6.94422 14.7642 9.87653 14.7642C12.8088 14.7642 15.1945 12.4461 15.1945 9.59683C15.1945 6.74757 12.8088 4.4295 9.87653 4.4295ZM9.87653 13.2878C7.78203 13.2878 6.07801 11.632 6.07801 9.59683C6.07801 7.56164 7.78203 5.90588 9.87653 5.90588C11.971 5.90588 13.6751 7.56164 13.6751 9.59683C13.6751 11.632 11.971 13.2878 9.87653 13.2878Z" fill="#333333"/>
</svg>
