<svg width="178" height="55" viewBox="0 0 178 55" fill="none" xmlns="http://www.w3.org/2000/svg">
<path d="M10.714 37.5548C9.35019 37.5548 8.07884 37.3698 6.89996 37C5.74418 36.607 4.72711 36.0292 3.84872 35.2663C2.99345 34.5035 2.31154 33.5442 1.803 32.3885C1.31758 31.2327 1.07487 29.8804 1.07487 28.3317C1.07487 26.8061 1.31758 25.5001 1.803 24.4136C2.31154 23.3041 2.97033 22.4026 3.77937 21.7091C4.58841 20.9926 5.51303 20.4725 6.55322 20.1489C7.59342 19.8021 8.65673 19.6288 9.74315 19.6288C10.9683 19.6288 12.0778 19.8137 13.0718 20.1835C14.0889 20.5534 14.9557 21.0619 15.6723 21.7091C16.412 22.3564 16.9783 23.1307 17.3712 24.0322C17.7873 24.9337 17.9954 25.9162 17.9954 26.9795C17.9954 27.7654 17.7758 28.3664 17.3366 28.7825C16.8974 29.1985 16.2848 29.4644 15.4989 29.5799L6.93463 30.8629C7.1889 31.6257 7.709 32.2035 8.49492 32.5965C9.28085 32.9664 10.1823 33.1513 11.1994 33.1513C12.1472 33.1513 13.0371 33.0357 13.8693 32.8045C14.7245 32.5503 15.418 32.2613 15.9496 31.9377C16.3195 32.1689 16.6316 32.4925 16.8858 32.9086C17.1401 33.3246 17.2672 33.7638 17.2672 34.2261C17.2672 35.2663 16.7818 36.0407 15.811 36.5492C15.0713 36.9422 14.2391 37.208 13.3145 37.3467C12.3899 37.4854 11.523 37.5548 10.714 37.5548ZM9.74315 23.9282C9.18838 23.9282 8.70296 24.0207 8.28688 24.2056C7.89392 24.3905 7.5703 24.6332 7.31603 24.9337C7.06176 25.2111 6.86528 25.5347 6.72659 25.9046C6.61101 26.2513 6.54167 26.6096 6.51855 26.9795L12.4477 26.0086C12.3783 25.5463 12.124 25.084 11.6849 24.6217C11.2457 24.1594 10.5984 23.9282 9.74315 23.9282ZM31.9659 36.5492C31.6423 36.8035 31.1684 37.0116 30.5443 37.1734C29.9202 37.3352 29.2152 37.4161 28.4293 37.4161C27.5278 37.4161 26.7418 37.3005 26.0715 37.0693C25.4243 36.8382 24.9735 36.4683 24.7192 35.9598C24.5112 35.5668 24.2569 35.0236 23.9564 34.3302C23.679 33.6136 23.3785 32.8277 23.0549 31.9724C22.7313 31.094 22.3961 30.1578 22.0494 29.1639C21.7027 28.1699 21.3675 27.1875 21.0439 26.2167C20.7434 25.2458 20.466 24.3096 20.2117 23.4081C19.9575 22.5066 19.7494 21.7091 19.5876 21.0157C19.9112 20.6921 20.3389 20.4147 20.8705 20.1835C21.4253 19.9293 22.0263 19.8021 22.6735 19.8021C23.4826 19.8021 24.1414 19.9755 24.6499 20.3222C25.1816 20.6458 25.5745 21.2699 25.8288 22.1946L27.181 27.4996C27.4353 28.5398 27.678 29.4875 27.9092 30.3428C28.1403 31.1749 28.3137 31.8221 28.4293 32.2845H28.6026C29.0418 30.5739 29.5041 28.6784 29.9896 26.5981C30.475 24.5177 30.9142 22.472 31.3071 20.4609C31.7001 20.2529 32.1393 20.0911 32.6247 19.9755C33.1333 19.8599 33.6187 19.8021 34.081 19.8021C34.89 19.8021 35.5719 19.9755 36.1267 20.3222C36.6815 20.6689 36.9589 21.2699 36.9589 22.1252C36.9589 22.4951 36.8664 23.0383 36.6815 23.7549C36.5197 24.4483 36.3001 25.2458 36.0227 26.1473C35.7684 27.0257 35.4564 27.9619 35.0865 28.9558C34.7398 29.9498 34.3815 30.9206 34.0116 31.8684C33.6418 32.8161 33.272 33.7061 32.9021 34.5382C32.5554 35.3472 32.2433 36.0176 31.9659 36.5492ZM48.333 37.5548C46.9692 37.5548 45.6979 37.3698 44.519 37C43.3632 36.607 42.3461 36.0292 41.4677 35.2663C40.6125 34.5035 39.9306 33.5442 39.422 32.3885C38.9366 31.2327 38.6939 29.8804 38.6939 28.3317C38.6939 26.8061 38.9366 25.5001 39.422 24.4136C39.9306 23.3041 40.5893 22.4026 41.3984 21.7091C42.2074 20.9926 43.132 20.4725 44.1722 20.1489C45.2124 19.8021 46.2757 19.6288 47.3622 19.6288C48.5873 19.6288 49.6968 19.8137 50.6908 20.1835C51.7079 20.5534 52.5747 21.0619 53.2913 21.7091C54.031 22.3564 54.5973 23.1307 54.9903 24.0322C55.4063 24.9337 55.6144 25.9162 55.6144 26.9795C55.6144 27.7654 55.3948 28.3664 54.9556 28.7825C54.5164 29.1985 53.9038 29.4644 53.1179 29.5799L44.5536 30.8629C44.8079 31.6257 45.328 32.2035 46.1139 32.5965C46.8999 32.9664 47.8014 33.1513 48.8184 33.1513C49.7662 33.1513 50.6561 33.0357 51.4883 32.8045C52.3435 32.5503 53.037 32.2613 53.5687 31.9377C53.9385 32.1689 54.2506 32.4925 54.5048 32.9086C54.7591 33.3246 54.8862 33.7638 54.8862 34.2261C54.8862 35.2663 54.4008 36.0407 53.43 36.5492C52.6903 36.9422 51.8581 37.208 50.9335 37.3467C50.0089 37.4854 49.1421 37.5548 48.333 37.5548ZM47.3622 23.9282C46.8074 23.9282 46.322 24.0207 45.9059 24.2056C45.5129 24.3905 45.1893 24.6332 44.935 24.9337C44.6808 25.2111 44.4843 25.5347 44.3456 25.9046C44.23 26.2513 44.1607 26.6096 44.1376 26.9795L50.0667 26.0086C49.9973 25.5463 49.7431 25.084 49.3039 24.6217C48.8647 24.1594 48.2174 23.9282 47.3622 23.9282ZM69.1309 26.3207C69.1309 25.6041 68.9229 25.084 68.5068 24.7604C68.1139 24.4136 67.5706 24.2403 66.8772 24.2403C66.4149 24.2403 65.9526 24.2981 65.4903 24.4136C65.0511 24.5292 64.6697 24.7026 64.346 24.9337V36.9653C64.1149 37.0347 63.745 37.104 63.2365 37.1734C62.7511 37.2427 62.2425 37.2774 61.7109 37.2774C61.2023 37.2774 60.74 37.2427 60.324 37.1734C59.931 37.104 59.5958 36.9653 59.3184 36.7573C59.0411 36.5492 58.8215 36.2719 58.6596 35.9251C58.521 35.5553 58.4516 35.0814 58.4516 34.5035V24.1016C58.4516 23.4775 58.5787 22.9689 58.833 22.576C59.1104 22.183 59.4802 21.8247 59.9426 21.5011C60.7285 20.9463 61.7109 20.4956 62.8898 20.1489C64.0918 19.8021 65.4209 19.6288 66.8772 19.6288C69.4892 19.6288 71.5003 20.2066 72.9103 21.3624C74.3204 22.4951 75.0254 24.0785 75.0254 26.1126V36.9653C74.7942 37.0347 74.4244 37.104 73.9158 37.1734C73.4304 37.2427 72.9219 37.2774 72.3902 37.2774C71.8817 37.2774 71.4194 37.2427 71.0033 37.1734C70.6103 37.104 70.2752 36.9653 69.9978 36.7573C69.7204 36.5492 69.5008 36.2719 69.339 35.9251C69.2003 35.5553 69.1309 35.0814 69.1309 34.5035V26.3207ZM84.5608 31.2096C84.5608 31.8106 84.7457 32.2382 85.1155 32.4925C85.5085 32.7468 86.0517 32.8739 86.7452 32.8739C87.0919 32.8739 87.4502 32.8508 87.82 32.8045C88.1899 32.7352 88.5135 32.6543 88.7909 32.5618C88.9989 32.8161 89.1723 33.105 89.311 33.4287C89.4728 33.7292 89.5537 34.099 89.5537 34.5382C89.5537 35.4166 89.2185 36.1332 88.5482 36.6879C87.9009 37.2427 86.7452 37.5201 85.0809 37.5201C83.0467 37.5201 81.4748 37.0578 80.3653 36.1332C79.2789 35.2086 78.7357 33.7061 78.7357 31.6257V16.7856C78.9899 16.7162 79.3482 16.6469 79.8105 16.5775C80.296 16.4851 80.8045 16.4388 81.3362 16.4388C82.3532 16.4388 83.1392 16.6237 83.6939 16.9936C84.2718 17.3403 84.5608 18.0916 84.5608 19.2473V21.4664H89.1029C89.2416 21.7207 89.3688 22.0443 89.4843 22.4373C89.623 22.8071 89.6924 23.2232 89.6924 23.6855C89.6924 24.4946 89.5075 25.084 89.1376 25.4538C88.7909 25.8006 88.317 25.9739 87.716 25.9739H84.5608V31.2096ZM100.628 19.6288C101.576 19.6288 102.5 19.7674 103.402 20.0448C104.326 20.2991 105.124 20.6921 105.794 21.2237C106.488 20.7614 107.262 20.38 108.117 20.0795C108.996 19.779 110.048 19.6288 111.273 19.6288C112.151 19.6288 113.006 19.7443 113.838 19.9755C114.694 20.2066 115.445 20.5765 116.092 21.085C116.763 21.5704 117.294 22.2292 117.687 23.0614C118.08 23.8704 118.277 24.8644 118.277 26.0433V36.9653C118.045 37.0347 117.676 37.104 117.167 37.1734C116.682 37.2427 116.173 37.2774 115.641 37.2774C115.133 37.2774 114.671 37.2427 114.255 37.1734C113.862 37.104 113.526 36.9653 113.249 36.7573C112.972 36.5492 112.752 36.2719 112.59 35.9251C112.452 35.5553 112.382 35.0814 112.382 34.5035V26.2167C112.382 25.5232 112.186 25.0262 111.793 24.7257C111.4 24.4021 110.868 24.2403 110.198 24.2403C109.874 24.2403 109.527 24.3212 109.158 24.483C108.788 24.6217 108.51 24.7719 108.325 24.9337C108.349 25.0262 108.36 25.1187 108.36 25.2111C108.36 25.2805 108.36 25.3498 108.36 25.4192V36.9653C108.106 37.0347 107.724 37.104 107.216 37.1734C106.73 37.2427 106.233 37.2774 105.725 37.2774C105.216 37.2774 104.754 37.2427 104.338 37.1734C103.945 37.104 103.61 36.9653 103.332 36.7573C103.055 36.5492 102.835 36.2719 102.674 35.9251C102.535 35.5553 102.466 35.0814 102.466 34.5035V26.2167C102.466 25.5232 102.246 25.0262 101.807 24.7257C101.391 24.4021 100.882 24.2403 100.281 24.2403C99.8652 24.2403 99.5069 24.3096 99.2064 24.4483C98.9059 24.5639 98.6516 24.6795 98.4436 24.7951V36.9653C98.2124 37.0347 97.8426 37.104 97.334 37.1734C96.8486 37.2427 96.3401 37.2774 95.8084 37.2774C95.2999 37.2774 94.8376 37.2427 94.4215 37.1734C94.0285 37.104 93.6933 36.9653 93.416 36.7573C93.1386 36.5492 92.919 36.2719 92.7572 35.9251C92.6185 35.5553 92.5491 35.0814 92.5491 34.5035V24.0322C92.5491 23.4081 92.6763 22.9111 92.9305 22.5413C93.2079 22.1715 93.5778 21.8247 94.0401 21.5011C94.826 20.9463 95.7968 20.4956 96.9526 20.1489C98.1315 19.8021 99.3566 19.6288 100.628 19.6288Z" fill="#1A1445"/>
<path d="M139.732 28.5744C139.732 30.0076 139.512 31.2905 139.073 32.4231C138.634 33.5327 138.01 34.4689 137.201 35.2317C136.415 35.9945 135.467 36.5724 134.358 36.9653C133.248 37.3583 132.011 37.5548 130.648 37.5548C129.284 37.5548 128.047 37.3467 126.937 36.9307C125.828 36.5146 124.869 35.9251 124.06 35.1623C123.274 34.3764 122.661 33.4287 122.222 32.3191C121.783 31.2096 121.563 29.9614 121.563 28.5744C121.563 27.2106 121.783 25.9739 122.222 24.8644C122.661 23.7549 123.274 22.8187 124.06 22.0559C124.869 21.2699 125.828 20.6689 126.937 20.2529C128.047 19.8368 129.284 19.6288 130.648 19.6288C132.011 19.6288 133.248 19.8483 134.358 20.2875C135.467 20.7036 136.415 21.3046 137.201 22.0905C138.01 22.8534 138.634 23.7895 139.073 24.8991C139.512 26.0086 139.732 27.2337 139.732 28.5744ZM127.596 28.5744C127.596 29.9845 127.862 31.0709 128.394 31.8337C128.949 32.5734 129.711 32.9432 130.682 32.9432C131.653 32.9432 132.393 32.5618 132.901 31.799C133.433 31.0362 133.699 29.9614 133.699 28.5744C133.699 27.1875 133.433 26.1242 132.901 25.3845C132.37 24.6217 131.618 24.2403 130.648 24.2403C129.677 24.2403 128.925 24.6217 128.394 25.3845C127.862 26.1242 127.596 27.1875 127.596 28.5744Z" fill="#1A1445"/>
<path d="M169.381 26.3207C169.381 25.6041 169.173 25.084 168.757 24.7604C168.364 24.4136 167.82 24.2403 167.127 24.2403C166.665 24.2403 166.202 24.2981 165.74 24.4136C165.301 24.5292 164.919 24.7026 164.596 24.9337V36.9653C164.365 37.0347 163.995 37.104 163.486 37.1734C163.001 37.2427 162.492 37.2774 161.961 37.2774C161.452 37.2774 160.99 37.2427 160.574 37.1734C160.181 37.104 159.846 36.9653 159.568 36.7573C159.291 36.5492 159.071 36.2719 158.909 35.9251C158.771 35.5553 158.701 35.0814 158.701 34.5035V24.1016C158.701 23.4775 158.829 22.9689 159.083 22.576C159.36 22.183 159.73 21.8247 160.192 21.5011C160.978 20.9463 161.961 20.4956 163.14 20.1489C164.342 19.8021 165.671 19.6288 167.127 19.6288C169.739 19.6288 171.75 20.2066 173.16 21.3624C174.57 22.4951 175.275 24.0785 175.275 26.1126V36.9653C175.044 37.0347 174.674 37.104 174.166 37.1734C173.68 37.2427 173.172 37.2774 172.64 37.2774C172.132 37.2774 171.669 37.2427 171.253 37.1734C170.86 37.104 170.525 36.9653 170.248 36.7573C169.97 36.5492 169.751 36.2719 169.589 35.9251C169.45 35.5553 169.381 35.0814 169.381 34.5035V26.3207Z" fill="#1A1445"/>
<path d="M142.744 19.0652C148.316 19.7445 151.123 25.6451 149.793 29.847C148.734 33.698 144.6 36.8529 140.129 35.9729C141.137 35.7099 142.376 35.309 142.978 34.9036C143.069 34.8385 143.153 34.7806 143.237 34.7228C146.804 32.4538 149.06 25.8888 145.453 21.2881C145.308 21.0922 145.056 20.806 144.848 20.6039C144.373 20.1017 143.544 19.52 142.744 19.0652Z" fill="#FFF601"/>
<path d="M142.744 19.0653C144.147 18.7396 145.612 18.7527 146.905 19.0585C149.879 19.7278 152.396 21.9041 153.481 24.8805C153.489 24.9157 153.504 24.9438 153.518 24.986C153.563 25.0986 153.593 25.2113 153.637 25.3239C153.644 25.3591 153.659 25.4013 153.667 25.4366C153.711 25.5774 153.749 25.7254 153.78 25.8665C153.787 25.9018 153.795 25.937 153.802 25.9581C153.81 25.9792 153.81 26.0075 153.825 26.0356C153.832 26.0709 153.84 26.1061 153.847 26.1414C153.87 26.2472 153.893 26.353 153.909 26.4659C153.909 26.4801 153.909 26.4801 153.909 26.4942C153.917 26.5295 153.925 26.5647 153.925 26.593C153.933 26.6283 153.94 26.6636 153.941 26.6919C153.964 26.8542 153.988 27.0166 153.997 27.1651C154.005 27.2003 154.005 27.2286 154.006 27.2711C154.225 29.5885 153.393 32.0705 152.213 33.546C152.206 33.5532 152.199 33.5604 152.192 33.5675C150.472 35.872 147.573 37.4091 144.337 37.239L144.323 37.2393C143.509 37.188 142.714 37.0586 141.918 36.7877C141.37 36.6191 140.672 36.2902 140.308 36.0764C140.244 36.042 140.193 36.0073 140.129 35.9729C146.165 36.9353 151.366 31.3584 149.782 25.4179C149.775 25.3968 149.775 25.3827 149.767 25.3616C149.744 25.2699 149.715 25.1713 149.685 25.0727C148.527 21.5385 145.751 19.5006 142.744 19.0653Z" fill="#FFF601"/>
</svg>
