<svg width="159" height="49" viewBox="0 0 159 49" fill="none" xmlns="http://www.w3.org/2000/svg">
<path d="M9.76586 33.6886C8.55189 33.6886 7.42023 33.524 6.37086 33.1948C5.34208 32.845 4.43674 32.3306 3.65487 31.6516C2.89356 30.9726 2.28658 30.1187 1.83391 29.09C1.40182 28.0612 1.18578 26.8575 1.18578 25.4789C1.18578 24.1209 1.40182 22.9584 1.83391 21.9913C2.28658 21.0037 2.87299 20.2012 3.59314 19.584C4.31329 18.9461 5.13632 18.4832 6.06223 18.1951C6.98814 17.8865 7.93462 17.7321 8.90168 17.7321C9.9922 17.7321 10.9798 17.8968 11.8646 18.226C12.7699 18.5552 13.5415 19.0078 14.1794 19.584C14.8378 20.1601 15.3419 20.8494 15.6917 21.6518C16.062 22.4543 16.2472 23.3288 16.2472 24.2752C16.2472 24.9748 16.0518 25.5098 15.6608 25.8801C15.2699 26.2505 14.7246 26.4871 14.025 26.59L6.40173 27.732C6.62806 28.411 7.09102 28.9254 7.79059 29.2751C8.49017 29.6044 9.29262 29.769 10.198 29.769C11.0416 29.769 11.8337 29.6661 12.5745 29.4603C13.3358 29.234 13.953 28.9768 14.4263 28.6887C14.7555 28.8945 15.0333 29.1826 15.2596 29.5529C15.4859 29.9233 15.5991 30.3142 15.5991 30.7257C15.5991 31.6516 15.167 32.3409 14.3028 32.7936C13.6444 33.1434 12.9037 33.38 12.0806 33.5035C11.2576 33.6269 10.486 33.6886 9.76586 33.6886ZM8.90168 21.5592C8.40786 21.5592 7.97577 21.6415 7.60541 21.8061C7.25562 21.9708 6.96756 22.1868 6.74123 22.4543C6.51489 22.7012 6.34 22.9893 6.21655 23.3185C6.11367 23.6271 6.05194 23.946 6.03136 24.2752L11.309 23.4111C11.2473 22.9995 11.021 22.588 10.63 22.1765C10.2391 21.765 9.66298 21.5592 8.90168 21.5592ZM28.6829 32.7936C28.3948 33.0199 27.973 33.2051 27.4174 33.3491C26.8619 33.4932 26.2343 33.5652 25.5348 33.5652C24.7323 33.5652 24.0327 33.4623 23.436 33.2566C22.8599 33.0508 22.4587 32.7216 22.2324 32.2689C22.0472 31.9191 21.8208 31.4356 21.5534 30.8183C21.3064 30.1805 21.039 29.4809 20.7509 28.7196C20.4628 27.9377 20.1645 27.1044 19.8559 26.2196C19.5472 25.3349 19.2489 24.4604 18.9608 23.5962C18.6933 22.7321 18.4464 21.8987 18.2201 21.0963C17.9938 20.2938 17.8086 19.584 17.6645 18.9667C17.9526 18.6786 18.3333 18.4317 18.8065 18.226C19.3003 17.9996 19.8353 17.8865 20.4114 17.8865C21.1316 17.8865 21.718 18.0408 22.1706 18.3494C22.6439 18.6375 22.9937 19.193 23.22 20.0161L24.4237 24.7382C24.65 25.6641 24.8661 26.5077 25.0718 27.269C25.2776 28.0097 25.4319 28.5859 25.5348 28.9974H25.6891C26.08 27.4748 26.4915 25.7876 26.9236 23.9357C27.3557 22.0839 27.7467 20.263 28.0964 18.4729C28.4462 18.2877 28.8372 18.1437 29.2693 18.0408C29.7219 17.9379 30.154 17.8865 30.5655 17.8865C31.2857 17.8865 31.8927 18.0408 32.3865 18.3494C32.8803 18.6581 33.1272 19.193 33.1272 19.9543C33.1272 20.2835 33.0449 20.7671 32.8803 21.4049C32.7363 22.0222 32.5408 22.7321 32.2939 23.5345C32.0676 24.3164 31.7898 25.1497 31.4606 26.0345C31.1519 26.9192 30.833 27.7834 30.5038 28.627C30.1746 29.4706 29.8454 30.2628 29.5162 31.0035C29.2075 31.7237 28.9298 32.3204 28.6829 32.7936ZM43.2517 33.6886C42.0377 33.6886 40.9061 33.524 39.8567 33.1948C38.8279 32.845 37.9226 32.3306 37.1407 31.6516C36.3794 30.9726 35.7724 30.1187 35.3197 29.09C34.8876 28.0612 34.6716 26.8575 34.6716 25.4789C34.6716 24.1209 34.8876 22.9584 35.3197 21.9913C35.7724 21.0037 36.3588 20.2012 37.079 19.584C37.7991 18.9461 38.6221 18.4832 39.5481 18.1951C40.474 17.8865 41.4204 17.7321 42.3875 17.7321C43.478 17.7321 44.4657 17.8968 45.3504 18.226C46.2557 18.5552 47.0273 19.0078 47.6652 19.584C48.3236 20.1601 48.8277 20.8494 49.1775 21.6518C49.5479 22.4543 49.733 23.3288 49.733 24.2752C49.733 24.9748 49.5376 25.5098 49.1466 25.8801C48.7557 26.2505 48.2104 26.4871 47.5109 26.59L39.8876 27.732C40.1139 28.411 40.5768 28.9254 41.2764 29.2751C41.976 29.6044 42.7784 29.769 43.6838 29.769C44.5274 29.769 45.3196 29.6661 46.0603 29.4603C46.8216 29.234 47.4389 28.9768 47.9121 28.6887C48.2413 28.8945 48.5191 29.1826 48.7454 29.5529C48.9717 29.9233 49.0849 30.3142 49.0849 30.7257C49.0849 31.6516 48.6528 32.3409 47.7886 32.7936C47.1302 33.1434 46.3895 33.38 45.5665 33.5035C44.7434 33.6269 43.9718 33.6886 43.2517 33.6886ZM42.3875 21.5592C41.8937 21.5592 41.4616 21.6415 41.0912 21.8061C40.7414 21.9708 40.4534 22.1868 40.2271 22.4543C40.0007 22.7012 39.8258 22.9893 39.7024 23.3185C39.5995 23.6271 39.5378 23.946 39.5172 24.2752L44.7949 23.4111C44.7331 22.9995 44.5068 22.588 44.1159 22.1765C43.7249 21.765 43.1488 21.5592 42.3875 21.5592ZM61.7646 23.6888C61.7646 23.051 61.5794 22.588 61.209 22.3C60.8592 21.9913 60.3757 21.837 59.7584 21.837C59.3469 21.837 58.9354 21.8885 58.5239 21.9913C58.1329 22.0942 57.7934 22.2485 57.5054 22.4543V33.164C57.2996 33.2257 56.9704 33.2874 56.5177 33.3491C56.0856 33.4109 55.633 33.4417 55.1597 33.4417C54.7071 33.4417 54.2956 33.4109 53.9252 33.3491C53.5754 33.2874 53.2771 33.164 53.0301 32.9788C52.7832 32.7936 52.5878 32.5467 52.4437 32.2381C52.3203 31.9088 52.2586 31.487 52.2586 30.9726V21.7136C52.2586 21.158 52.3717 20.7053 52.5981 20.3556C52.845 20.0058 53.1742 19.6868 53.5857 19.3988C54.2853 18.905 55.1597 18.5037 56.2091 18.1951C57.279 17.8865 58.4621 17.7321 59.7584 17.7321C62.0835 17.7321 63.8736 18.2465 65.1287 19.2753C66.3838 20.2835 67.0114 21.693 67.0114 23.5036V33.164C66.8056 33.2257 66.4764 33.2874 66.0237 33.3491C65.5916 33.4109 65.139 33.4417 64.6657 33.4417C64.2131 33.4417 63.8016 33.4109 63.4312 33.3491C63.0814 33.2874 62.7831 33.164 62.5361 32.9788C62.2892 32.7936 62.0938 32.5467 61.9497 32.2381C61.8263 31.9088 61.7646 31.487 61.7646 30.9726V23.6888ZM75.4991 28.0406C75.4991 28.5756 75.6637 28.9562 75.9929 29.1826C76.3427 29.4089 76.8262 29.5221 77.4435 29.5221C77.7522 29.5221 78.0711 29.5015 78.4003 29.4603C78.7295 29.3986 79.0176 29.3266 79.2645 29.2443C79.4497 29.4706 79.604 29.7278 79.7274 30.0159C79.8715 30.2834 79.9435 30.6126 79.9435 31.0035C79.9435 31.7854 79.6451 32.4232 79.0484 32.9171C78.4723 33.4109 77.4435 33.6578 75.9621 33.6578C74.1514 33.6578 72.7522 33.2463 71.7646 32.4232C70.7976 31.6002 70.314 30.2628 70.314 28.411V15.2013C70.5404 15.1396 70.8593 15.0779 71.2708 15.0162C71.7029 14.9338 72.1555 14.8927 72.6288 14.8927C73.5341 14.8927 74.2337 15.0573 74.7275 15.3865C75.2419 15.6952 75.4991 16.3639 75.4991 17.3926V19.3679H79.5422C79.6657 19.5943 79.7789 19.8823 79.8817 20.2321C80.0052 20.5613 80.0669 20.9317 80.0669 21.3432C80.0669 22.0633 79.9023 22.588 79.5731 22.9172C79.2645 23.2259 78.8427 23.3802 78.3077 23.3802H75.4991V28.0406ZM89.801 17.7321C90.6446 17.7321 91.4677 17.8556 92.2701 18.1025C93.0931 18.3288 93.803 18.6786 94.3997 19.1519C95.017 18.7404 95.7063 18.4009 96.4676 18.1334C97.2494 17.8659 98.1856 17.7321 99.2762 17.7321C100.058 17.7321 100.819 17.835 101.56 18.0408C102.321 18.2465 102.99 18.5758 103.566 19.0284C104.163 19.4605 104.636 20.0469 104.986 20.7876C105.336 21.5078 105.511 22.3926 105.511 23.4419V33.164C105.305 33.2257 104.976 33.2874 104.523 33.3491C104.091 33.4109 103.638 33.4417 103.165 33.4417C102.712 33.4417 102.301 33.4109 101.93 33.3491C101.581 33.2874 101.282 33.164 101.035 32.9788C100.788 32.7936 100.593 32.5467 100.449 32.2381C100.326 31.9088 100.264 31.487 100.264 30.9726V23.5962C100.264 22.979 100.089 22.5366 99.7391 22.2691C99.3893 21.981 98.9161 21.837 98.3194 21.837C98.0313 21.837 97.7227 21.909 97.3935 22.0531C97.0643 22.1765 96.8174 22.3103 96.6527 22.4543C96.6733 22.5366 96.6836 22.6189 96.6836 22.7012C96.6836 22.7629 96.6836 22.8246 96.6836 22.8864V33.164C96.4573 33.2257 96.1178 33.2874 95.6651 33.3491C95.233 33.4109 94.7906 33.4417 94.338 33.4417C93.8853 33.4417 93.4738 33.4109 93.1034 33.3491C92.7536 33.2874 92.4553 33.164 92.2084 32.9788C91.9615 32.7936 91.766 32.5467 91.622 32.2381C91.4985 31.9088 91.4368 31.487 91.4368 30.9726V23.5962C91.4368 22.979 91.2413 22.5366 90.8504 22.2691C90.48 21.981 90.0274 21.837 89.4924 21.837C89.122 21.837 88.8031 21.8987 88.5356 22.0222C88.2681 22.1251 88.0418 22.228 87.8566 22.3308V33.164C87.6509 33.2257 87.3216 33.2874 86.869 33.3491C86.4369 33.4109 85.9842 33.4417 85.511 33.4417C85.0583 33.4417 84.6468 33.4109 84.2764 33.3491C83.9266 33.2874 83.6283 33.164 83.3814 32.9788C83.1345 32.7936 82.939 32.5467 82.795 32.2381C82.6715 31.9088 82.6098 31.487 82.6098 30.9726V21.6518C82.6098 21.0963 82.723 20.6539 82.9493 20.3247C83.1962 19.9955 83.5254 19.6868 83.9369 19.3988C84.6365 18.905 85.5007 18.5037 86.5295 18.1951C87.5788 17.8865 88.6694 17.7321 89.801 17.7321Z" fill="#1A1445"/>
<path d="M124.609 25.695C124.609 26.9707 124.414 28.1126 124.023 29.1208C123.632 30.1085 123.077 30.9418 122.356 31.6208C121.657 32.2998 120.813 32.8142 119.826 33.164C118.838 33.5137 117.737 33.6886 116.523 33.6886C115.309 33.6886 114.208 33.5035 113.221 33.1331C112.233 32.7627 111.379 32.2381 110.659 31.5591C109.959 30.8595 109.414 30.0159 109.023 29.0282C108.632 28.0406 108.437 26.9295 108.437 25.695C108.437 24.481 108.632 23.3802 109.023 22.3926C109.414 21.4049 109.959 20.5716 110.659 19.8926C111.379 19.193 112.233 18.6581 113.221 18.2877C114.208 17.9173 115.309 17.7321 116.523 17.7321C117.737 17.7321 118.838 17.9276 119.826 18.3186C120.813 18.6889 121.657 19.2239 122.356 19.9235C123.077 20.6025 123.632 21.4358 124.023 22.4234C124.414 23.4111 124.609 24.5016 124.609 25.695ZM113.807 25.695C113.807 26.9501 114.044 27.9171 114.517 28.5961C115.011 29.2546 115.69 29.5838 116.554 29.5838C117.418 29.5838 118.077 29.2443 118.529 28.5653C119.003 27.8863 119.239 26.9295 119.239 25.695C119.239 24.4604 119.003 23.5139 118.529 22.8555C118.056 22.1765 117.387 21.837 116.523 21.837C115.659 21.837 114.99 22.1765 114.517 22.8555C114.044 23.5139 113.807 24.4604 113.807 25.695Z" fill="#1A1445"/>
<path d="M150.998 23.6888C150.998 23.051 150.813 22.588 150.442 22.3C150.092 21.9913 149.609 21.837 148.992 21.837C148.58 21.837 148.169 21.8885 147.757 21.9913C147.366 22.0942 147.027 22.2485 146.739 22.4543V33.164C146.533 33.2257 146.204 33.2874 145.751 33.3491C145.319 33.4109 144.866 33.4417 144.393 33.4417C143.94 33.4417 143.529 33.4109 143.158 33.3491C142.809 33.2874 142.51 33.164 142.263 32.9788C142.016 32.7936 141.821 32.5467 141.677 32.2381C141.553 31.9088 141.492 31.487 141.492 30.9726V21.7136C141.492 21.158 141.605 20.7053 141.831 20.3556C142.078 20.0058 142.407 19.6868 142.819 19.3988C143.518 18.905 144.393 18.5037 145.442 18.1951C146.512 17.8865 147.695 17.7321 148.992 17.7321C151.317 17.7321 153.107 18.2465 154.362 19.2753C155.617 20.2835 156.245 21.693 156.245 23.5036V33.164C156.039 33.2257 155.71 33.2874 155.257 33.3491C154.825 33.4109 154.372 33.4417 153.899 33.4417C153.446 33.4417 153.035 33.4109 152.664 33.3491C152.315 33.2874 152.016 33.164 151.769 32.9788C151.522 32.7936 151.327 32.5467 151.183 32.2381C151.059 31.9088 150.998 31.487 150.998 30.9726V23.6888Z" fill="#1A1445"/>
<path d="M136.265 18.6016C133.628 17.3 130.47 17.648 128.195 19.4908C129.045 19.5251 129.879 19.7423 130.637 20.1272C133.64 21.5746 134.901 25.1547 133.456 28.1301C132.446 30.1271 130.428 31.4281 128.175 31.5356C128.626 31.8274 129.098 32.0875 129.586 32.3139C133.412 34.1527 138.008 32.5737 139.853 28.7871C141.697 25.0005 140.091 20.4404 136.265 18.6016Z" fill="#FFBF00"/>
</svg>
