<svg width="38" height="30" viewBox="0 0 38 30" fill="none" xmlns="http://www.w3.org/2000/svg">
<path d="M9.57898 0.815227C15.8483 0.27025 22.153 0.27025 28.4223 0.815226L31.4427 1.07779C33.4535 1.25258 35.1756 2.45192 36.0679 4.16747C36.1821 4.38694 36.0965 4.65267 35.8862 4.78288L23.3543 12.5407C20.6665 14.2046 17.2775 14.2395 14.556 12.6314L1.94039 5.17665C1.73657 5.05621 1.64302 4.80829 1.73487 4.59009C2.55119 2.65096 4.38645 1.2666 6.55851 1.07779L9.57898 0.815227Z" fill="white"/>
<path d="M1.72461 8.53376C1.41268 8.34944 1.01467 8.54779 0.978312 8.90828C0.470841 13.9395 0.593663 19.0184 1.34678 24.0267C1.74381 26.6669 3.89862 28.691 6.55851 28.9222L9.57898 29.1848C15.8483 29.7297 22.153 29.7297 28.4223 29.1848L31.4427 28.9222C34.1026 28.691 36.2575 26.6669 36.6545 24.0267C37.4295 18.8725 37.537 13.6435 36.977 8.46855C36.9377 8.10552 36.5329 7.91082 36.2224 8.10302L24.9333 15.0915C21.297 17.3426 16.7118 17.3898 13.0299 15.2141L1.72461 8.53376Z" fill="white"/>
</svg>
