<svg width="27" height="27" viewBox="0 0 27 27" fill="none" xmlns="http://www.w3.org/2000/svg">
<path d="M19.0147 19.4114C19.0147 19.7055 18.7763 19.9439 18.4822 19.9439H9.00345C8.65053 19.9439 8.36444 19.6578 8.36444 19.3049V7.80255C8.36444 7.44963 8.65053 7.16353 9.00345 7.16353H18.4822C18.7763 7.16353 19.0147 7.40194 19.0147 7.69604C19.0147 7.99014 19.2532 8.22856 19.5473 8.22856H20.5058C20.8587 8.22856 21.1448 7.94246 21.1448 7.58954V2.4774C21.1448 2.12448 20.8587 1.83838 20.5058 1.83838H6.87339C6.52047 1.83838 6.23438 2.12448 6.23438 2.4774V24.63C6.23438 24.9829 6.52047 25.269 6.87339 25.269H20.5058C20.8587 25.269 21.1448 24.9829 21.1448 24.63V19.5179C21.1448 19.165 20.8587 18.8789 20.5058 18.8789H19.5473C19.2532 18.8789 19.0147 19.1173 19.0147 19.4114Z" fill="#8A8A8A"/>
<path d="M23.8912 14.0059C24.1408 13.7564 24.1408 13.3518 23.8912 13.1022L21.1738 10.3848C20.7713 9.98226 20.083 10.2674 20.083 10.8367V11.85C20.083 12.2029 19.7969 12.489 19.4439 12.489H15.3968C15.0439 12.489 14.7578 12.7751 14.7578 13.1281V13.9801C14.7578 14.333 15.0439 14.6191 15.3968 14.6191H19.4439C19.7969 14.6191 20.083 14.9052 20.083 15.2581V16.2715C20.083 16.8408 20.7713 17.1259 21.1738 16.7233L23.8912 14.0059Z" fill="#8A8A8A"/>
</svg>
