<svg width="46" height="42" viewBox="0 0 46 42" fill="none" xmlns="http://www.w3.org/2000/svg">
<path d="M29.1842 3.67734L44.4626 29.1246C46.6582 32.7795 45.5798 37.588 42.0526 39.8635C40.8688 40.63 39.4888 41.0385 38.0785 41.0399H7.51949C3.36758 41.0399 0 37.5515 0 33.2446C0 31.7876 0.394443 30.3626 1.13545 29.1246L16.4161 3.67734C18.6095 0.0224772 23.247 -1.09701 26.7742 1.17844C27.7501 1.80773 28.5754 2.66273 29.1842 3.67734ZM24.1226 5.59027C23.8434 5.41074 23.5308 5.28965 23.2036 5.23431C22.8763 5.17898 22.5413 5.19055 22.2187 5.26833C21.896 5.34612 21.5925 5.48849 21.3264 5.68686C21.0604 5.88523 20.8373 6.13547 20.6706 6.42248L5.39224 31.8743C5.14405 32.2891 5.01323 32.7635 5.01375 33.2469C5.01375 34.6833 6.13552 35.8461 7.52177 35.8461H38.0763C38.5459 35.8461 39.0042 35.7093 39.4009 35.4539C39.9702 35.0757 40.3716 34.4924 40.5216 33.8256C40.6715 33.1588 40.5584 32.4598 40.2058 31.8743L24.9274 6.42248C24.727 6.08737 24.4525 5.80267 24.1248 5.59027H24.1226ZM22.8001 31.9199C22.1955 31.9199 21.6155 31.6797 21.1879 31.2521C20.7604 30.8245 20.5201 30.2446 20.5201 29.6399C20.5201 29.0352 20.7604 28.4552 21.1879 28.0277C21.6155 27.6001 22.1955 27.3599 22.8001 27.3599C23.4048 27.3599 23.9848 27.6001 24.4124 28.0277C24.8399 28.4552 25.0802 29.0352 25.0802 29.6399C25.0802 30.2446 24.8399 30.8245 24.4124 31.2521C23.9848 31.6797 23.4048 31.9199 22.8001 31.9199ZM22.8001 11.3998C23.4048 11.3998 23.9848 11.64 24.4124 12.0676C24.8399 12.4951 25.0802 13.0751 25.0802 13.6798V22.7998C25.0802 23.4045 24.8399 23.9845 24.4124 24.412C23.9848 24.8396 23.4048 25.0798 22.8001 25.0798C22.1955 25.0798 21.6155 24.8396 21.1879 24.412C20.7604 23.9845 20.5201 23.4045 20.5201 22.7998V13.6798C20.5201 13.0751 20.7604 12.4951 21.1879 12.0676C21.6155 11.64 22.1955 11.3998 22.8001 11.3998Z" fill="#FFC001"/>
</svg>
