<svg width="32" height="28" viewBox="0 0 32 28" fill="none" xmlns="http://www.w3.org/2000/svg">
<path fill-rule="evenodd" clip-rule="evenodd" d="M28.3242 7.15221C28.3358 7.45201 28.3397 7.7517 28.3397 8.0515C28.3397 17.141 21.9457 27.6343 10.2532 27.6343C6.66152 27.6343 3.32175 26.4895 0.507812 24.5408C1.00523 24.5953 1.5104 24.6363 2.02331 24.6363C5.00133 24.6363 7.74421 23.5322 9.9199 21.6789C7.13827 21.638 4.78946 19.6348 3.97938 16.9093C4.36827 16.9911 4.76876 17.0321 5.17831 17.0321C5.75583 17.0321 6.31655 16.9504 6.85401 16.7869C3.94318 16.16 1.75071 13.3801 1.75071 10.0414C1.75071 10.0005 1.75071 9.98679 1.75071 9.95954C2.60858 10.4638 3.59047 10.777 4.6331 10.8179C2.9251 9.57781 1.80236 7.46561 1.80236 5.08082C1.80236 3.82709 2.11502 2.64146 2.6654 1.6194C5.79975 5.78939 10.4858 8.52854 15.7687 8.81472C15.6602 8.3105 15.6046 7.77916 15.6046 7.2477C15.6046 3.44565 18.4508 0.365784 21.9624 0.365784C23.7906 0.365784 25.4417 1.19718 26.6007 2.53266C28.0516 2.23286 29.4107 1.66055 30.6407 0.870158C30.164 2.47819 29.1575 3.82703 27.8422 4.67193C29.1291 4.5084 30.3565 4.14074 31.4947 3.59564C30.6407 4.97201 29.5658 6.18466 28.3242 7.15221Z" fill="white"/>
</svg>
