<svg width="26" height="27" viewBox="0 0 26 27" fill="none" xmlns="http://www.w3.org/2000/svg">
<g clip-path="url(#clip0_2120_7424)">
<path d="M25.3974 6.05572C24.5081 6.44978 23.5528 6.71604 22.5485 6.83639C23.5847 6.21632 24.36 5.2404 24.7296 4.09074C23.756 4.66904 22.6905 5.0761 21.5793 5.29422C20.832 4.49637 19.8423 3.96754 18.7637 3.78984C17.6851 3.61214 16.578 3.7955 15.6143 4.31147C14.6506 4.82743 13.8842 5.64713 13.4341 6.6433C12.984 7.63947 12.8754 8.75637 13.1251 9.8206C11.1523 9.72155 9.22241 9.20879 7.46063 8.31561C5.69886 7.42243 4.14457 6.16878 2.89866 4.63603C2.47264 5.37091 2.22769 6.22293 2.22769 7.13034C2.22721 7.94721 2.42837 8.75157 2.81332 9.47205C3.19828 10.1925 3.75511 10.8069 4.43443 11.2605C3.6466 11.2355 2.87616 11.0226 2.18722 10.6396V10.7035C2.18714 11.8492 2.58344 12.9596 3.30889 13.8464C4.03433 14.7332 5.04424 15.3416 6.16723 15.5686C5.43639 15.7664 4.67016 15.7955 3.92641 15.6538C4.24325 16.6396 4.86044 17.5016 5.69156 18.1192C6.52268 18.7368 7.52612 19.0791 8.56142 19.0981C6.80394 20.4777 4.63347 21.2261 2.39916 21.2228C2.00337 21.2229 1.60792 21.1998 1.21484 21.1536C3.4828 22.6118 6.12286 23.3857 8.81916 23.3827C17.9465 23.3827 22.9361 15.8231 22.9361 9.26679C22.9361 9.05378 22.9308 8.83864 22.9212 8.62564C23.8918 7.92376 24.7295 7.05461 25.3953 6.05891L25.3974 6.05572Z" fill="#8A8A8A"/>
</g>
<defs>
<clipPath id="clip0_2120_7424">
<rect width="25.5607" height="25.5607" fill="white" transform="translate(0.21875 0.797913)"/>
</clipPath>
</defs>
</svg>
