<svg width="28" height="28" viewBox="0 0 28 28" fill="none" xmlns="http://www.w3.org/2000/svg">
<path d="M15.1654 6.99998C16.454 6.99998 17.4987 5.95531 17.4987 4.66665C17.4987 3.37798 16.454 2.33331 15.1654 2.33331C13.8767 2.33331 12.832 3.37798 12.832 4.66665C12.832 5.95531 13.8767 6.99998 15.1654 6.99998Z" fill="#333333"/>
<path d="M16.3076 14.315C16.5934 14.7444 17.0204 15.0699 17.5104 15.2332L20.6312 16.2739L21.3697 14.0619L18.2489 13.0212L16.3087 10.1104C16.083 9.77336 15.7739 9.50047 15.4116 9.31819L13.7386 8.48169C13.2408 8.23286 12.6703 8.17117 12.1309 8.30786L8.40573 9.23769C8.07876 9.31915 7.7733 9.4704 7.51029 9.68104C7.24729 9.89169 7.03297 10.1567 6.88206 10.458L4.78906 14.6452L6.87623 15.6894L8.96923 11.5022L11.5627 10.8535L9.45806 20.5905L5.17173 23.5387L6.49356 25.4614L10.7811 22.512C11.2722 22.1737 11.6129 21.6662 11.7377 21.0829L12.3409 18.2969L15.2774 20.4995L16.3566 25.8954L18.6444 25.4369L17.5652 20.0387C17.4519 19.4764 17.1354 18.9755 16.6762 18.6317L14.1434 16.7324L14.8982 12.1999L16.3076 14.315Z" fill="#333333"/>
</svg>
