<svg width="27" height="27" viewBox="0 0 27 27" fill="none" xmlns="http://www.w3.org/2000/svg">
<path d="M22.3035 8.08313C19.2362 3.3544 12.9738 1.94856 8.11727 4.88804C3.38854 7.82752 1.85489 14.2177 4.92218 18.9464L5.17779 19.3298L4.15536 23.164L7.98947 22.1415L8.37288 22.3971C10.0343 23.2918 11.8236 23.803 13.6128 23.803C15.5299 23.803 17.4469 23.2918 19.1084 22.2693C23.8371 19.202 25.243 12.9397 22.3035 8.08313ZM19.6196 17.924C19.1084 18.6908 18.4694 19.202 17.5747 19.3298C17.0635 19.3298 16.4245 19.5855 13.8684 18.563C11.6958 17.5406 9.90652 15.8792 8.62849 13.9621C7.86166 13.0675 7.47825 11.9172 7.35045 10.767C7.35045 9.74458 7.73386 8.84995 8.37288 8.21093C8.62849 7.95533 8.88409 7.82752 9.1397 7.82752H9.77872C10.0343 7.82752 10.2899 7.82752 10.4177 8.33874C10.6733 8.97776 11.3124 10.5114 11.3124 10.6392C11.4402 10.767 11.4402 11.0226 11.3124 11.1504C11.4402 11.406 11.3124 11.6616 11.1846 11.7894C11.0568 11.9172 10.929 12.1728 10.8011 12.3006C10.5455 12.4285 10.4177 12.6841 10.5455 12.9397C11.0568 13.7065 11.6958 14.4733 12.3348 15.1123C13.1016 15.7513 13.8684 16.2626 14.7631 16.646C15.0187 16.7738 15.2743 16.7738 15.4021 16.5182C15.5299 16.2626 16.1689 15.6235 16.4245 15.3679C16.6801 15.1123 16.8079 15.1123 17.0635 15.2401L19.1084 16.2626C19.364 16.3904 19.6196 16.5182 19.7474 16.646C19.8752 17.0294 19.8752 17.5406 19.6196 17.924Z" fill="#8A8A8A"/>
</svg>
